<svg width="21" height="20" viewBox="0 0 21 20" fill="none" xmlns="http://www.w3.org/2000/svg">
<path d="M14.24 12.37L15.47 13.3C15.87 13.6 15.98 14.16 15.73 14.6L14.11 17.4C13.86 17.84 13.32 18.02 12.86 17.82L11.43 17.22C11.23 17.35 11.01 17.48 10.79 17.59L10.6 19.13C10.54 19.63 10.11 20.01 9.61 20.01H6.38C5.88 20.01 5.45 19.63 5.39 19.13L5.2 17.59C4.98 17.48 4.77 17.36 4.56 17.22L3.13 17.82C2.67 18.02 2.13 17.84 1.88 17.4L0.259999 14.6C0.00999932 14.16 0.119999 13.61 0.519999 13.3L1.75 12.37V12C1.75 11.88 1.75 11.75 1.76 11.63L0.529999 10.7C0.129999 10.4 0.0199993 9.84 0.269999 9.40001L1.89 6.60001C2.14 6.16001 2.68 5.98001 3.14 6.18001L4.57 6.78001C4.77 6.65001 4.99 6.52001 5.21 6.41001L5.4 4.87001C5.45 4.38001 5.88 4.00001 6.38 4.00001H9.61C10.11 4.00001 10.54 4.38001 10.6 4.88001L10.79 6.42001C11.01 6.53001 11.22 6.65001 11.43 6.79001L12.86 6.19001C13.32 5.99001 13.86 6.17001 14.11 6.61001L15.73 9.41001C15.98 9.85001 15.87 10.4 15.47 10.71L14.24 11.64C14.25 11.76 14.25 11.88 14.25 12.01C14.25 12.14 14.25 12.25 14.24 12.37ZM11 12C11 10.34 9.66 9.00001 8 9.00001C6.34 9.00001 5 10.34 5 12C5 13.66 6.34 15 8 15C9.66 15 11 13.66 11 12Z" fill="black"/>
<path d="M15.41 4.59001L16.04 5.99001C16.22 6.38001 16.78 6.38001 16.95 5.99001L17.58 4.59001L18.98 3.96001C19.0673 3.92023 19.1413 3.85619 19.1932 3.77551C19.2451 3.69484 19.2727 3.60093 19.2727 3.50501C19.2727 3.40908 19.2451 3.31518 19.1932 3.2345C19.1413 3.15382 19.0673 3.08978 18.98 3.05001L17.58 2.42001L16.95 1.02001C16.9102 0.932712 16.8462 0.858701 16.7655 0.806803C16.6848 0.754905 16.5909 0.72731 16.495 0.72731C16.3991 0.72731 16.3052 0.754905 16.2245 0.806803C16.1438 0.858701 16.0798 0.932712 16.04 1.02001L15.41 2.42001L14.01 3.05001C13.9227 3.08978 13.8487 3.15382 13.7968 3.2345C13.7449 3.31518 13.7173 3.40908 13.7173 3.50501C13.7173 3.60093 13.7449 3.69484 13.7968 3.77551C13.8487 3.85619 13.9227 3.92023 14.01 3.96001L15.41 4.59001Z" fill="#ED9121"/>
<path d="M18.96 10L19.28 10.72L20 11.05C20.0873 11.0898 20.1613 11.1538 20.2132 11.2345C20.2651 11.3152 20.2927 11.4091 20.2927 11.505C20.2927 11.6009 20.2651 11.6948 20.2132 11.7755C20.1613 11.8562 20.0873 11.9202 20 11.96L19.27 12.28L18.95 13C18.9102 13.0873 18.8462 13.1613 18.7655 13.2132C18.6848 13.2651 18.5909 13.2927 18.495 13.2927C18.3991 13.2927 18.3052 13.2651 18.2245 13.2132C18.1438 13.1613 18.0798 13.0873 18.04 13L17.72 12.27L17 11.95C16.9127 11.9102 16.8387 11.8462 16.7868 11.7655C16.7349 11.6848 16.7073 11.5909 16.7073 11.495C16.7073 11.3991 16.7349 11.3052 16.7868 11.2245C16.8387 11.1438 16.9127 11.0798 17 11.04L17.73 10.72L18.05 10C18.0898 9.91271 18.1538 9.8387 18.2345 9.7868C18.3152 9.73491 18.4091 9.70731 18.505 9.70731C18.6009 9.70731 18.6948 9.73491 18.7755 9.7868C18.8562 9.8387 18.9202 9.91271 18.96 10Z" fill="#ED9121"/>
</svg>
