<svg width="19" height="20" viewBox="0 0 19 20" fill="none" xmlns="http://www.w3.org/2000/svg">
<path d="M14.1484 0C13.5984 0 13.1484 0.45 13.1484 1V2H5.14844V1C5.14844 0.45 4.69844 0 4.14844 0C3.59844 0 3.14844 0.45 3.14844 1V2H2.14844C1.03844 2 0.158437 2.9 0.158437 4L0.148438 18C0.148438 18.5304 0.359151 19.0391 0.734224 19.4142C1.1093 19.7893 1.618 20 2.14844 20H16.1484C17.2484 20 18.1484 19.1 18.1484 18V4C18.1484 2.9 17.2484 2 16.1484 2H15.1484V1C15.1484 0.45 14.6984 0 14.1484 0ZM2.14844 18V8H16.1484V18H2.14844Z" fill="white"/>
<path d="M5.14844 14C4.59844 14 4.14844 14.45 4.14844 15C4.14844 15.55 4.59844 16 5.14844 16C5.69844 16 6.14844 15.55 6.14844 15C6.14844 14.45 5.69844 14 5.14844 14Z" fill="#ED9121"/>
<path d="M4.14844 11C4.14844 10.45 4.59844 10 5.14844 10C5.69844 10 6.14844 10.45 6.14844 11C6.14844 11.55 5.69844 12 5.14844 12C4.59844 12 4.14844 11.55 4.14844 11Z" fill="#ED9121"/>
<path d="M8.14844 11C8.14844 10.45 8.59844 10 9.14844 10C9.69844 10 10.1484 10.45 10.1484 11C10.1484 11.55 9.69844 12 9.14844 12C8.59844 12 8.14844 11.55 8.14844 11Z" fill="#ED9121"/>
<path d="M8.14844 15C8.14844 14.45 8.59844 14 9.14844 14C9.69844 14 10.1484 14.45 10.1484 15C10.1484 15.55 9.69844 16 9.14844 16C8.59844 16 8.14844 15.55 8.14844 15Z" fill="#ED9121"/>
<path d="M12.1484 11C12.1484 10.45 12.5984 10 13.1484 10C13.6984 10 14.1484 10.45 14.1484 11C14.1484 11.55 13.6984 12 13.1484 12C12.5984 12 12.1484 11.55 12.1484 11Z" fill="#ED9121"/>
<path d="M12.1484 15C12.1484 14.45 12.5984 14 13.1484 14C13.6984 14 14.1484 14.45 14.1484 15C14.1484 15.55 13.6984 16 13.1484 16C12.5984 16 12.1484 15.55 12.1484 15Z" fill="#ED9121"/>
</svg>
