<svg width="24" height="24" viewBox="0 0 24 24" fill="none" xmlns="http://www.w3.org/2000/svg">
<path d="M12 2L4 5V11.09C4 16.14 7.41 20.85 12 22C16.59 20.85 20 16.14 20 11.09V5L12 2ZM18 11.09C18 15.09 15.45 18.79 12 19.92C8.55 18.79 6 15.1 6 11.09V6.39L12 4.14L18 6.39V11.09Z" fill="black"/>
<path d="M14.25 9.625H13.875V8.875C13.875 7.84 13.035 7 12 7C10.965 7 10.125 7.84 10.125 8.875V9.625H9.75C9.3375 9.625 9 9.9625 9 10.375V14.125C9 14.5375 9.3375 14.875 9.75 14.875H14.25C14.6625 14.875 15 14.5375 15 14.125V10.375C15 9.9625 14.6625 9.625 14.25 9.625ZM12 13C11.5875 13 11.25 12.6625 11.25 12.25C11.25 11.8375 11.5875 11.5 12 11.5C12.4125 11.5 12.75 11.8375 12.75 12.25C12.75 12.6625 12.4125 13 12 13ZM10.875 9.625V8.875C10.875 8.2525 11.3775 7.75 12 7.75C12.6225 7.75 13.125 8.2525 13.125 8.875V9.625H10.875Z" fill="#ED9121"/>
</svg>
