<svg width="24" height="24" viewBox="0 0 24 24" fill="none" xmlns="http://www.w3.org/2000/svg">
<path d="M13.62 10.53C14.27 10.26 14.98 10.1 15.72 10.08L13 6L9 12.5L6 9L1 17L2.63 18.17L6.26 12.36L9.27 15.88L13.07 9.7L13.62 10.53ZM16.26 10.09C16.98 10.13 17.67 10.3 18.31 10.58L23 3.18L21.38 2L16.26 10.09Z" fill="black"/>
<path d="M19.88 18.47C20.32 17.77 20.58 16.96 20.58 16.08C20.58 13.59 18.57 11.58 16.08 11.58C13.59 11.58 11.58 13.59 11.58 16.08C11.58 18.57 13.59 20.58 16.07 20.58C16.95 20.58 17.77 20.32 18.46 19.88L21.58 23L23 21.58L19.88 18.47ZM16.08 18.58C15.417 18.58 14.7811 18.3166 14.3122 17.8478C13.8434 17.3789 13.58 16.743 13.58 16.08C13.58 15.417 13.8434 14.7811 14.3122 14.3122C14.7811 13.8434 15.417 13.58 16.08 13.58C16.743 13.58 17.3789 13.8434 17.8478 14.3122C18.3166 14.7811 18.58 15.417 18.58 16.08C18.58 16.743 18.3166 17.3789 17.8478 17.8478C17.3789 18.3166 16.743 18.58 16.08 18.58Z" fill="#ED9121"/>
</svg>
