<svg width="108" height="39" viewBox="0 0 108 39" fill="none" xmlns="http://www.w3.org/2000/svg">
<path d="M79.682 1.5L95.6675 23L101.005 15.3879H106.417L98.086 26.8815L106.417 38.375H101.005L95.6675 30.5L90.3437 38.375H84.9183L93.1145 26.8815L74.1501 1.5H79.682Z" fill="#ED9121"/>
<path d="M76.8587 35.9403V23.6201H78.9831V35.9403H76.8587ZM77.9389 21.5667C77.5249 21.5667 77.1678 21.4411 76.8677 21.1897C76.5737 20.9384 76.4266 20.6363 76.4266 20.2834C76.4266 19.9304 76.5737 19.6283 76.8677 19.377C77.1678 19.1257 77.5249 19 77.9389 19C78.353 19 78.7071 19.1257 79.0012 19.377C79.3012 19.6283 79.4512 19.9304 79.4512 20.2834C79.4512 20.6363 79.3012 20.9384 79.0012 21.1897C78.7071 21.4411 78.353 21.5667 77.9389 21.5667Z" fill="white"/>
<path d="M67.4272 35.9331V23.6129H69.4796V25.4738H69.6236C69.8756 24.8642 70.3317 24.3695 70.9919 23.9899C71.652 23.6102 72.3961 23.4204 73.2243 23.4204C73.3803 23.4204 73.5754 23.4231 73.8094 23.4284C74.0435 23.4338 74.2205 23.4418 74.3405 23.4525V25.3775C74.2685 25.3615 74.1035 25.3374 73.8454 25.3053C73.5934 25.2679 73.3263 25.2492 73.0443 25.2492C72.3721 25.2492 71.772 25.3748 71.2439 25.6262C70.7218 25.8721 70.3077 26.2144 70.0017 26.6528C69.7016 27.086 69.5516 27.5806 69.5516 28.1367V35.9331H67.4272Z" fill="white"/>
<path d="M64.2315 23.4597V25.0639H57.066V23.4597H64.2315ZM59.1545 21.1028H61.2789V32.2507C61.2789 32.7854 61.3659 33.1864 61.5399 33.4538C61.72 33.7158 61.948 33.8923 62.2241 33.9832C62.5061 34.0687 62.8032 34.1115 63.1152 34.1115C63.3493 34.1115 63.5413 34.1008 63.6914 34.0794C63.8414 34.0527 63.9614 34.0313 64.0514 34.0153L64.4835 35.7157C64.3395 35.7638 64.1385 35.812 63.8804 35.8601C63.6224 35.9136 63.2953 35.9403 62.8992 35.9403C62.2991 35.9403 61.711 35.8253 61.1349 35.5954C60.5647 35.3655 60.0906 35.0152 59.7126 34.5447C59.3405 34.0741 59.1545 33.4805 59.1545 32.764V21.1028Z" fill="white"/>
<path d="M48.0036 35.9404C47.1274 35.9404 46.3322 35.7934 45.6181 35.4993C44.9039 35.1998 44.3368 34.7694 43.9167 34.2079C43.4967 33.6411 43.2866 32.9566 43.2866 32.1545C43.2866 31.4487 43.4427 30.8765 43.7547 30.4381C44.0668 29.9942 44.4839 29.6466 45.006 29.3953C45.5281 29.144 46.1042 28.9568 46.7343 28.8339C47.3704 28.7055 48.0096 28.6039 48.6517 28.5291C49.4919 28.4328 50.173 28.3606 50.6951 28.3125C51.2232 28.259 51.6073 28.1708 51.8473 28.0478C52.0934 27.9248 52.2164 27.7109 52.2164 27.4061V27.342C52.2164 26.5506 51.9734 25.9356 51.4873 25.4971C51.0072 25.0587 50.278 24.8394 49.2998 24.8394C48.2856 24.8394 47.4905 25.0373 46.9143 25.433C46.3382 25.8287 45.9332 26.2511 45.6991 26.7003L43.6827 26.0586C44.0428 25.31 44.5229 24.7271 45.123 24.31C45.7291 23.8876 46.3892 23.5935 47.1034 23.4277C47.8235 23.2566 48.5317 23.171 49.2278 23.171C49.6719 23.171 50.182 23.2192 50.7581 23.3154C51.3402 23.4063 51.9013 23.5962 52.4415 23.8849C52.9876 24.1737 53.4407 24.6095 53.8007 25.1923C54.1608 25.7752 54.3408 26.5559 54.3408 27.5345V35.6517H52.2164V33.9833H52.1084C51.9644 34.2507 51.7243 34.5368 51.3882 34.8416C51.0522 35.1464 50.6051 35.4057 50.047 35.6196C49.4889 35.8335 48.8077 35.9404 48.0036 35.9404ZM48.3276 34.24C49.1678 34.24 49.8759 34.0929 50.4521 33.7988C51.0342 33.5047 51.4723 33.1251 51.7663 32.6599C52.0664 32.1946 52.2164 31.7054 52.2164 31.192V29.4595C52.1264 29.5557 51.9283 29.644 51.6223 29.7242C51.3222 29.799 50.9742 29.8659 50.5781 29.9247C50.188 29.9782 49.8069 30.0263 49.4349 30.0691C49.0688 30.1065 48.7717 30.1386 48.5437 30.1653C47.9916 30.2295 47.4755 30.3338 46.9954 30.4782C46.5213 30.6172 46.1372 30.8284 45.8431 31.1118C45.5551 31.3899 45.411 31.7695 45.411 32.2508C45.411 32.9085 45.6841 33.4058 46.2302 33.7427C46.7823 34.0742 47.4815 34.24 48.3276 34.24Z" fill="white"/>
<path d="M25.3715 22L28.1925 22L32.8715 32.3082L37.6787 22L39.8715 22.0051V35.194L37.8715 35.2486V25.5L33.8715 35.2486L31.7993 35.1889L27.3715 25.5V35.2486L25.3715 35.1889V22Z" fill="white"/>
<path d="M74.8327 7.99878V9.62856H68.2129V7.99878H74.8327ZM70.1423 5H72.1049V16.9299C72.1049 17.4732 72.1853 17.8806 72.3461 18.1523C72.5124 18.4185 72.7231 18.5977 72.9781 18.6901C73.2387 18.777 73.5132 18.8205 73.8015 18.8205C74.0177 18.8205 74.1951 18.8096 74.3337 18.7879C74.4723 18.7607 74.5832 18.739 74.6664 18.7227L75.0655 20.4503C74.9325 20.4991 74.7467 20.548 74.5083 20.5969C74.2699 20.6513 73.9678 20.6784 73.6019 20.6784C73.0474 20.6784 72.5041 20.5616 71.9719 20.328C71.4452 20.0944 71.0072 19.7386 70.6579 19.2605C70.3141 18.7825 70.1423 18.1794 70.1423 17.4515V5Z" fill="white"/>
<path d="M57.541 12.9858V20.5154H55.5783V7.99869H57.4744V9.95442H57.6408C57.9401 9.31881 58.3948 8.80815 59.0046 8.42244C59.6145 8.03129 60.4018 7.83572 61.3665 7.83572C62.2314 7.83572 62.9882 8.00956 63.6368 8.35724C64.2855 8.6995 64.79 9.22102 65.1504 9.92183C65.5108 10.6172 65.691 11.4973 65.691 12.5621V20.5154H63.7283V12.6924C63.7283 11.7091 63.4677 10.9432 62.9466 10.3945C62.4254 9.84034 61.7102 9.56328 60.801 9.56328C60.1745 9.56328 59.6145 9.69637 59.1211 9.96257C58.6332 10.2288 58.2478 10.6172 57.9651 11.1279C57.6823 11.6385 57.541 12.2578 57.541 12.9858Z" fill="white"/>
<path d="M47.3036 20.7761C46.0728 20.7761 45.0111 20.5099 44.1185 19.9775C43.2314 19.4397 42.5467 18.69 42.0643 17.7284C41.5875 16.7614 41.3491 15.6369 41.3491 14.3548C41.3491 13.0727 41.5875 11.9427 42.0643 10.9649C42.5467 9.98159 43.2175 9.21559 44.0769 8.6669C44.9418 8.11278 45.9508 7.83572 47.104 7.83572C47.7693 7.83572 48.4263 7.94437 49.075 8.16167C49.7237 8.37897 50.3141 8.73209 50.8464 9.22102C51.3786 9.70452 51.8027 10.3456 52.1188 11.1442C52.4348 11.9427 52.5928 12.926 52.5928 14.094V14.9089H42.7463V13.2466H50.5969C50.5969 12.5403 50.4527 11.9102 50.1644 11.356C49.8817 10.8019 49.4769 10.3646 48.9502 10.0441C48.4291 9.72354 47.8137 9.56328 47.104 9.56328C46.3223 9.56328 45.6459 9.75342 45.0748 10.1337C44.5093 10.5085 44.0741 10.9975 43.7692 11.6005C43.4642 12.2035 43.3118 12.85 43.3118 13.5399V14.6482C43.3118 15.5934 43.4781 16.3947 43.8108 17.0521C44.1489 17.704 44.6174 18.2011 45.2162 18.5433C45.815 18.8801 46.5108 19.0486 47.3036 19.0486C47.8192 19.0486 48.2849 18.9779 48.7007 18.8367C49.1221 18.69 49.4853 18.4727 49.7902 18.1848C50.0951 17.8914 50.3307 17.5274 50.4971 17.0928L52.3932 17.6144C52.1936 18.2445 51.8582 18.7987 51.3869 19.2767C50.9157 19.7494 50.3335 20.1188 49.6405 20.385C48.9475 20.6457 48.1685 20.7761 47.3036 20.7761Z" fill="white"/>
<path d="M39.8148 7.99893L35.0911 20.5156H33.0952L28.3715 7.99893H30.5005L34.0266 17.9731H34.1597L37.6858 7.99893H39.8148Z" fill="white"/>
<path d="M0 38.4357V0H107.416V5.2305L6.7337 4.5V17.5H14.5897H19.7068V22.216H6.7337V28.5V33.5H12.3451H19.7068V38.4357H0Z" fill="#ED9121"/>
</svg>
