<svg width="109" height="39" viewBox="0 0 109 39" fill="none" xmlns="http://www.w3.org/2000/svg">
<path d="M80.3105 1.5L96.2959 23L101.634 15.3879H107.045L98.7145 26.8815L107.045 38.375H101.634L96.2959 30.5L90.9722 38.375H85.5468L93.743 26.8815L74.7786 1.5H80.3105Z" fill="#ED9121"/>
<path d="M77.4872 35.9403V23.6201H79.6116V35.9403H77.4872ZM78.5674 21.5667C78.1533 21.5667 77.7963 21.4411 77.4962 21.1897C77.2021 20.9384 77.0551 20.6363 77.0551 20.2834C77.0551 19.9304 77.2021 19.6283 77.4962 19.377C77.7963 19.1257 78.1533 19 78.5674 19C78.9815 19 79.3356 19.1257 79.6296 19.377C79.9297 19.6283 80.0797 19.9304 80.0797 20.2834C80.0797 20.6363 79.9297 20.9384 79.6296 21.1897C79.3356 21.4411 78.9815 21.5667 78.5674 21.5667Z" fill="black"/>
<path d="M68.0556 35.9331V23.6129H70.108V25.4738H70.2521C70.5041 24.8642 70.9602 24.3695 71.6203 23.9899C72.2805 23.6102 73.0246 23.4204 73.8528 23.4204C74.0088 23.4204 74.2039 23.4231 74.4379 23.4284C74.672 23.4338 74.849 23.4418 74.969 23.4525V25.3775C74.897 25.3615 74.732 25.3374 74.4739 25.3053C74.2219 25.2679 73.9548 25.2492 73.6728 25.2492C73.0006 25.2492 72.4005 25.3748 71.8724 25.6262C71.3503 25.8721 70.9362 26.2144 70.6301 26.6528C70.3301 27.086 70.1801 27.5806 70.1801 28.1367V35.9331H68.0556Z" fill="black"/>
<path d="M64.86 23.4597V25.0639H57.6945V23.4597H64.86ZM59.7829 21.1028H61.9074V32.2507C61.9074 32.7854 61.9944 33.1864 62.1684 33.4538C62.3484 33.7158 62.5765 33.8923 62.8525 33.9832C63.1346 34.0687 63.4317 34.1115 63.7437 34.1115C63.9778 34.1115 64.1698 34.1008 64.3198 34.0794C64.4699 34.0527 64.5899 34.0313 64.6799 34.0153L65.112 35.7157C64.968 35.7638 64.7669 35.812 64.5089 35.8601C64.2508 35.9136 63.9238 35.9403 63.5277 35.9403C62.9276 35.9403 62.3394 35.8253 61.7633 35.5954C61.1932 35.3655 60.7191 35.0152 60.341 34.5447C59.969 34.0741 59.7829 33.4805 59.7829 32.764V21.1028Z" fill="black"/>
<path d="M48.632 35.9404C47.7559 35.9404 46.9607 35.7934 46.2466 35.4993C45.5324 35.1998 44.9653 34.7694 44.5452 34.2079C44.1251 33.6411 43.9151 32.9566 43.9151 32.1545C43.9151 31.4487 44.0711 30.8765 44.3832 30.4381C44.6953 29.9942 45.1123 29.6466 45.6344 29.3953C46.1565 29.144 46.7327 28.9568 47.3628 28.8339C47.9989 28.7055 48.638 28.6039 49.2802 28.5291C50.1203 28.4328 50.8015 28.3606 51.3236 28.3125C51.8517 28.259 52.2358 28.1708 52.4758 28.0478C52.7219 27.9248 52.8449 27.7109 52.8449 27.4061V27.342C52.8449 26.5506 52.6018 25.9356 52.1157 25.4971C51.6356 25.0587 50.9065 24.8394 49.9283 24.8394C48.9141 24.8394 48.1189 25.0373 47.5428 25.433C46.9667 25.8287 46.5616 26.2511 46.3276 26.7003L44.3112 26.0586C44.6713 25.31 45.1513 24.7271 45.7515 24.31C46.3576 23.8876 47.0177 23.5935 47.7319 23.4277C48.452 23.2566 49.1601 23.171 49.8563 23.171C50.3004 23.171 50.8105 23.2192 51.3866 23.3154C51.9687 23.4063 52.5298 23.5962 53.0699 23.8849C53.616 24.1737 54.0691 24.6095 54.4292 25.1923C54.7893 25.7752 54.9693 26.5559 54.9693 27.5345V35.6517H52.8449V33.9833H52.7369C52.5928 34.2507 52.3528 34.5368 52.0167 34.8416C51.6807 35.1464 51.2336 35.4057 50.6755 35.6196C50.1173 35.8335 49.4362 35.9404 48.632 35.9404ZM48.9561 34.24C49.7963 34.24 50.5044 34.0929 51.0805 33.7988C51.6626 33.5047 52.1007 33.1251 52.3948 32.6599C52.6949 32.1946 52.8449 31.7054 52.8449 31.192V29.4595C52.7549 29.5557 52.5568 29.644 52.2508 29.7242C51.9507 29.799 51.6026 29.8659 51.2066 29.9247C50.8165 29.9782 50.4354 30.0263 50.0633 30.0691C49.6973 30.1065 49.4002 30.1386 49.1722 30.1653C48.62 30.2295 48.1039 30.3338 47.6238 30.4782C47.1497 30.6172 46.7657 30.8284 46.4716 31.1118C46.1836 31.3899 46.0395 31.7695 46.0395 32.2508C46.0395 32.9085 46.3126 33.4058 46.8587 33.7427C47.4108 34.0742 48.1099 34.24 48.9561 34.24Z" fill="black"/>
<path d="M26 22L28.821 22L33.5 32.3082L38.3072 22L40.5 22.0051V35.194L38.5 35.2486V25.5L34.5 35.2486L32.4278 35.1889L28 25.5V35.2486L26 35.1889V22Z" fill="black"/>
<path d="M75.4612 7.99878V9.62856H68.8414V7.99878H75.4612ZM70.7708 5H72.7334V16.9299C72.7334 17.4732 72.8138 17.8806 72.9746 18.1523C73.1409 18.4185 73.3516 18.5977 73.6066 18.6901C73.8672 18.777 74.1416 18.8205 74.4299 18.8205C74.6462 18.8205 74.8236 18.8096 74.9622 18.7879C75.1008 18.7607 75.2117 18.739 75.2948 18.7227L75.694 20.4503C75.561 20.4991 75.3752 20.548 75.1368 20.5969C74.8984 20.6513 74.5963 20.6784 74.2303 20.6784C73.6759 20.6784 73.1326 20.5616 72.6003 20.328C72.0736 20.0944 71.6357 19.7386 71.2864 19.2605C70.9426 18.7825 70.7708 18.1794 70.7708 17.4515V5Z" fill="black"/>
<path d="M58.1694 12.9858V20.5154H56.2068V7.99869H58.1029V9.95442H58.2692C58.5686 9.31881 59.0232 8.80815 59.6331 8.42244C60.243 8.03129 61.0303 7.83572 61.9949 7.83572C62.8598 7.83572 63.6166 8.00956 64.2653 8.35724C64.914 8.6995 65.4185 9.22102 65.7789 9.92183C66.1392 10.6172 66.3194 11.4973 66.3194 12.5621V20.5154H64.3568V12.6924C64.3568 11.7091 64.0962 10.9432 63.575 10.3945C63.0539 9.84034 62.3387 9.56328 61.4294 9.56328C60.8029 9.56328 60.243 9.69637 59.7495 9.96257C59.2616 10.2288 58.8763 10.6172 58.5936 11.1279C58.3108 11.6385 58.1694 12.2578 58.1694 12.9858Z" fill="black"/>
<path d="M47.9321 20.7761C46.7013 20.7761 45.6396 20.5099 44.7469 19.9775C43.8599 19.4397 43.1752 18.69 42.6928 17.7284C42.216 16.7614 41.9776 15.6369 41.9776 14.3548C41.9776 13.0727 42.216 11.9427 42.6928 10.9649C43.1752 9.98159 43.846 9.21559 44.7054 8.6669C45.5703 8.11278 46.5793 7.83572 47.7325 7.83572C48.3978 7.83572 49.0548 7.94437 49.7035 8.16167C50.3521 8.37897 50.9426 8.73209 51.4748 9.22102C52.0071 9.70452 52.4312 10.3456 52.7472 11.1442C53.0633 11.9427 53.2213 12.926 53.2213 14.094V14.9089H43.3747V13.2466H51.2253C51.2253 12.5403 51.0812 11.9102 50.7929 11.356C50.5101 10.8019 50.1054 10.3646 49.5787 10.0441C49.0576 9.72354 48.4422 9.56328 47.7325 9.56328C46.9508 9.56328 46.2744 9.75342 45.7033 10.1337C45.1378 10.5085 44.7026 10.9975 44.3976 11.6005C44.0927 12.2035 43.9403 12.85 43.9403 13.5399V14.6482C43.9403 15.5934 44.1066 16.3947 44.4392 17.0521C44.7774 17.704 45.2459 18.2011 45.8447 18.5433C46.4435 18.8801 47.1393 19.0486 47.9321 19.0486C48.4477 19.0486 48.9134 18.9779 49.3292 18.8367C49.7506 18.69 50.1137 18.4727 50.4187 18.1848C50.7236 17.8914 50.9592 17.5274 51.1256 17.0928L53.0217 17.6144C52.8221 18.2445 52.4867 18.7987 52.0154 19.2767C51.5441 19.7494 50.962 20.1188 50.269 20.385C49.5759 20.6457 48.797 20.7761 47.9321 20.7761Z" fill="black"/>
<path d="M40.4433 7.99893L35.7196 20.5156H33.7237L29 7.99893H31.129L34.6551 17.9731H34.7882L38.3143 7.99893H40.4433Z" fill="black"/>
<path d="M0.628479 38.4357V0H108.044V5.2305L7.36218 4.5V17.5H15.2182H20.3353V22.216H7.36218V28.5V33.5H12.9736H20.3353V38.4357H0.628479Z" fill="#ED9121"/>
</svg>
